<?xml version="1.0" encoding="UTF-8" standalone="no"?>
<!DOCTYPE svg PUBLIC "-//W3C//DTD SVG 1.1//EN"
 "http://www.w3.org/Graphics/SVG/1.1/DTD/svg11.dtd">
<!-- Generated by graphviz version 8.0.5 (20230430.1635)
 -->
<!-- Title: D Pages: 1 -->
<svg width="588pt" height="516pt"
 viewBox="0.00 0.00 587.61 516.20" xmlns="http://www.w3.org/2000/svg" xmlns:xlink="http://www.w3.org/1999/xlink">
<g id="graph0" class="graph" transform="scale(1 1) rotate(0) translate(4 512.2)">
<title>D</title>
<polygon fill="white" stroke="none" points="-4,4 -4,-512.2 583.61,-512.2 583.61,4 -4,4"/>
<!-- NoSQL -->
<g id="node1" class="node">
<title>NoSQL</title>
<path fill="none" stroke="black" d="M310.11,-283.29C310.11,-286.43 288.03,-288.98 260.86,-288.98 233.68,-288.98 211.61,-286.43 211.61,-283.29 211.61,-283.29 211.61,-232.1 211.61,-232.1 211.61,-228.96 233.68,-226.41 260.86,-226.41 288.03,-226.41 310.11,-228.96 310.11,-232.1 310.11,-232.1 310.11,-283.29 310.11,-283.29"/>
<path fill="none" stroke="black" d="M310.11,-283.29C310.11,-280.15 288.03,-277.6 260.86,-277.6 233.68,-277.6 211.61,-280.15 211.61,-283.29"/>
<text text-anchor="middle" x="260.86" y="-263.15" font-family="Anaktoria" font-size="14.00">Base de Datos </text>
<text text-anchor="middle" x="260.86" y="-244.4" font-family="Anaktoria" font-size="14.00"> NoSQL</text>
</g>
<!-- Escalabilidad -->
<g id="node2" class="node">
<title>Escalabilidad</title>
<polygon fill="none" stroke="black" points="382.11,-212.2 382.11,-303.2 579.61,-303.2 579.61,-212.2 382.11,-212.2"/>
<text text-anchor="middle" x="480.86" y="-285.9" font-family="Anaktoria" font-size="14.00">Alta Escalabilidad</text>
<polyline fill="none" stroke="black" points="382.11,-276.45 579.61,-276.45"/>
<text text-anchor="middle" x="480.86" y="-259.15" font-family="Anaktoria" font-size="14.00">Las bases de datos NoSQL</text>
<text text-anchor="middle" x="480.86" y="-240.4" font-family="Anaktoria" font-size="14.00">pueden manejar incrementos en la</text>
<text text-anchor="middle" x="480.86" y="-221.65" font-family="Anaktoria" font-size="14.00">demanda, a침adiendo servidores</text>
</g>
<!-- NoSQL&#45;&gt;Escalabilidad -->
<g id="edge1" class="edge">
<title>NoSQL&#45;&gt;Escalabilidad</title>
<path fill="none" stroke="black" d="M310.5,-257.7C328.72,-257.7 350.13,-257.7 371.51,-257.7"/>
<polygon fill="black" stroke="black" points="371.32,-261.2 381.32,-257.7 371.32,-254.2 371.32,-261.2"/>
</g>
<!-- Disponibilidad -->
<g id="node3" class="node">
<title>Disponibilidad</title>
<polygon fill="none" stroke="black" points="237.64,-435.45 237.64,-507.7 387.14,-507.7 387.14,-435.45 237.64,-435.45"/>
<text text-anchor="middle" x="312.39" y="-490.4" font-family="Anaktoria" font-size="14.00">Alta Disponibilidad</text>
<polyline fill="none" stroke="black" points="237.64,-480.95 387.14,-480.95"/>
<text text-anchor="middle" x="312.39" y="-463.65" font-family="Anaktoria" font-size="14.00">Pueden ejecutarse sin</text>
<text text-anchor="middle" x="312.39" y="-444.9" font-family="Anaktoria" font-size="14.00">interrupciones de servicio</text>
</g>
<!-- NoSQL&#45;&gt;Disponibilidad -->
<g id="edge2" class="edge">
<title>NoSQL&#45;&gt;Disponibilidad</title>
<path fill="none" stroke="black" d="M268.46,-289.25C277.09,-325.09 291.27,-383.92 301.17,-425.03"/>
<polygon fill="black" stroke="black" points="297.97,-425.69 303.72,-434.6 304.78,-424.05 297.97,-425.69"/>
</g>
<!-- BigData -->
<g id="node4" class="node">
<title>BigData</title>
<polygon fill="none" stroke="black" points="0,-303.74 0,-450.99 152.5,-450.99 152.5,-303.74 0,-303.74"/>
<text text-anchor="middle" x="76.25" y="-433.69" font-family="Anaktoria" font-size="14.00">Manejo Eficiende de</text>
<text text-anchor="middle" x="76.25" y="-414.94" font-family="Anaktoria" font-size="14.00">grandes volumenes de</text>
<text text-anchor="middle" x="76.25" y="-396.19" font-family="Anaktoria" font-size="14.00">datos</text>
<polyline fill="none" stroke="black" points="0,-386.74 152.5,-386.74"/>
<text text-anchor="middle" x="76.25" y="-369.44" font-family="Anaktoria" font-size="14.00">Capacidad de almacenar</text>
<text text-anchor="middle" x="76.25" y="-350.69" font-family="Anaktoria" font-size="14.00">grandes cantidades de</text>
<text text-anchor="middle" x="76.25" y="-331.94" font-family="Anaktoria" font-size="14.00">datos sin estructura,</text>
<text text-anchor="middle" x="76.25" y="-313.19" font-family="Anaktoria" font-size="14.00">justo para BigData</text>
</g>
<!-- NoSQL&#45;&gt;BigData -->
<g id="edge3" class="edge">
<title>NoSQL&#45;&gt;BigData</title>
<path fill="none" stroke="black" d="M215.22,-287.28C198.89,-297.86 179.91,-310.17 161.33,-322.21"/>
<polygon fill="black" stroke="black" points="159.74,-319.72 153.25,-328.1 163.54,-325.6 159.74,-319.72"/>
</g>
<!-- ToleranciaParticion -->
<g id="node5" class="node">
<title>ToleranciaParticion</title>
<polygon fill="none" stroke="black" points="11.75,-77.54 11.75,-168.54 162,-168.54 162,-77.54 11.75,-77.54"/>
<text text-anchor="middle" x="86.88" y="-151.24" font-family="Anaktoria" font-size="14.00">Tolerancia a la Partici칩n</text>
<polyline fill="none" stroke="black" points="11.75,-141.79 162,-141.79"/>
<text text-anchor="middle" x="86.88" y="-124.49" font-family="Anaktoria" font-size="14.00">Continuan operando a</text>
<text text-anchor="middle" x="86.88" y="-105.74" font-family="Anaktoria" font-size="14.00">pesar de desconexiones</text>
<text text-anchor="middle" x="86.88" y="-86.99" font-family="Anaktoria" font-size="14.00">entre nodos</text>
</g>
<!-- NoSQL&#45;&gt;ToleranciaParticion -->
<g id="edge4" class="edge">
<title>NoSQL&#45;&gt;ToleranciaParticion</title>
<path fill="none" stroke="black" d="M221.81,-227.48C201.91,-212.08 177.15,-192.91 154.28,-175.21"/>
<polygon fill="black" stroke="black" points="156.68,-171.87 146.63,-168.51 152.39,-177.4 156.68,-171.87"/>
</g>
<!-- DesarrolloRapido -->
<g id="node6" class="node">
<title>DesarrolloRapido</title>
<polygon fill="none" stroke="black" points="254.61,-0.5 254.61,-91.5 386.86,-91.5 386.86,-0.5 254.61,-0.5"/>
<text text-anchor="middle" x="320.73" y="-74.2" font-family="Anaktoria" font-size="14.00">Desarrollo R치pido</text>
<polyline fill="none" stroke="black" points="254.61,-64.75 386.86,-64.75"/>
<text text-anchor="middle" x="320.73" y="-47.45" font-family="Anaktoria" font-size="14.00">Bien adaptados para</text>
<text text-anchor="middle" x="320.73" y="-28.7" font-family="Anaktoria" font-size="14.00">entornos de desarrollo</text>
<text text-anchor="middle" x="320.73" y="-9.95" font-family="Anaktoria" font-size="14.00">r치pido</text>
</g>
<!-- NoSQL&#45;&gt;DesarrolloRapido -->
<g id="edge5" class="edge">
<title>NoSQL&#45;&gt;DesarrolloRapido</title>
<path fill="none" stroke="black" d="M269.82,-226C279.08,-193.25 293.73,-141.46 304.94,-101.82"/>
<polygon fill="black" stroke="black" points="308.58,-102.82 307.93,-92.25 301.84,-100.92 308.58,-102.82"/>
</g>
</g>
</svg>
